<svg fill="none" xmlns="http://www.w3.org/2000/svg" viewBox="-0.19 23.77 653.86 128.14"> <path d="M0.3125 146V52.9091H40.4943C47.4034 52.9091 53.4489 54.2727 58.6307 57C63.8125 59.7273 67.8428 63.5606 70.7216 68.5C73.6004 73.4394 75.0398 79.2121 75.0398 85.8182C75.0398 92.4848 73.5549 98.2576 70.5852 103.136C67.6458 108.015 63.5095 111.773 58.1761 114.409C52.8731 117.045 46.6761 118.364 39.5852 118.364H15.5852V98.7273H34.4943C37.464 98.7273 39.9943 98.2121 42.0852 97.1818C44.2064 96.1212 45.8277 94.6212 46.9489 92.6818C48.1004 90.7424 48.6761 88.4545 48.6761 85.8182C48.6761 83.1515 48.1004 80.8788 46.9489 79C45.8277 77.0909 44.2064 75.6364 42.0852 74.6364C39.9943 73.6061 37.464 73.0909 34.4943 73.0909H25.5852V146H0.3125ZM84.3125 146V52.9091H124.494C131.403 52.9091 137.449 54.1667 142.631 56.6818C147.813 59.197 151.843 62.8182 154.722 67.5455C157.6 72.2727 159.04 77.9394 159.04 84.5455C159.04 91.2121 157.555 96.8333 154.585 101.409C151.646 105.985 147.509 109.439 142.176 111.773C136.873 114.106 130.676 115.273 123.585 115.273H99.5852V95.6364H118.494C121.464 95.6364 123.994 95.2727 126.085 94.5455C128.206 93.7879 129.828 92.5909 130.949 90.9545C132.1 89.3182 132.676 87.1818 132.676 84.5455C132.676 81.8788 132.1 79.7121 130.949 78.0455C129.828 76.3485 128.206 75.1061 126.085 74.3182C123.994 73.5 121.464 73.0909 118.494 73.0909H109.585V146H84.3125ZM138.858 103.273L162.131 146H134.676L111.949 103.273H138.858ZM193.994 146H166.722L197.449 52.9091H231.994L262.722 146H235.449L215.085 78.5455H214.358L193.994 146ZM188.903 109.273H240.176V128.182H188.903V109.273ZM333.006 146H297.188V52.9091H332.642C342.218 52.9091 350.491 54.7727 357.46 58.5C364.46 62.197 369.854 67.5303 373.642 74.5C377.46 81.4394 379.369 89.7576 379.369 99.4545C379.369 109.152 377.475 117.485 373.688 124.455C369.9 131.394 364.536 136.727 357.597 140.455C350.657 144.152 342.46 146 333.006 146ZM322.46 124.545H332.097C336.703 124.545 340.627 123.803 343.869 122.318C347.142 120.833 349.627 118.273 351.324 114.636C353.051 111 353.915 105.939 353.915 99.4545C353.915 92.9697 353.036 87.9091 351.278 84.2727C349.551 80.6364 347.006 78.0758 343.642 76.5909C340.309 75.1061 336.218 74.3636 331.369 74.3636H322.46V124.545ZM380.744 52.9091H408.926L427.108 90.7273H427.835L446.017 52.9091H474.199L440.017 116.727V146H414.926V116.727L380.744 52.9091ZM537.528 52.9091H562.801V112.545C562.801 119.636 561.104 125.773 557.71 130.955C554.347 136.106 549.65 140.091 543.619 142.909C537.589 145.697 530.589 147.091 522.619 147.091C514.589 147.091 507.559 145.697 501.528 142.909C495.498 140.091 490.801 136.106 487.438 130.955C484.104 125.773 482.438 119.636 482.438 112.545V52.9091H507.71V110.364C507.71 113.242 508.347 115.818 509.619 118.091C510.892 120.333 512.65 122.091 514.892 123.364C517.165 124.636 519.741 125.273 522.619 125.273C525.528 125.273 528.104 124.636 530.347 123.364C532.589 122.091 534.347 120.333 535.619 118.091C536.892 115.818 537.528 113.242 537.528 110.364V52.9091ZM572.267 73.2727V52.9091H653.176V73.2727H625.176V146H600.267V73.2727H572.267Z" fill="black"></path> <path d="M0.3125 146H-0.1875V146.5H0.3125V146ZM0.3125 52.9091V52.4091H-0.1875V52.9091H0.3125ZM58.6307 57L58.3978 57.4425L58.3978 57.4425L58.6307 57ZM70.7216 68.5L71.1536 68.2482L71.1536 68.2482L70.7216 68.5ZM70.5852 103.136L70.1581 102.876L70.157 102.878L70.5852 103.136ZM58.1761 114.409L57.9546 113.961L57.9536 113.961L58.1761 114.409ZM15.5852 118.364H15.0852V118.864H15.5852V118.364ZM15.5852 98.7273V98.2273H15.0852V98.7273H15.5852ZM42.0852 97.1818L42.3062 97.6303L42.3088 97.629L42.0852 97.1818ZM46.9489 92.6818L46.5189 92.4265L46.516 92.4316L46.9489 92.6818ZM46.9489 79L46.5176 79.2533L46.5226 79.2613L46.9489 79ZM42.0852 74.6364L41.8642 75.0849L41.872 75.0886L42.0852 74.6364ZM25.5852 73.0909V72.5909H25.0852V73.0909H25.5852ZM25.5852 146V146.5H26.0852V146H25.5852ZM0.8125 146V52.9091H-0.1875V146H0.8125ZM0.3125 53.4091H40.4943V52.4091H0.3125V53.4091ZM40.4943 53.4091C47.3368 53.4091 53.2997 54.7592 58.3978 57.4425L58.8636 56.5575C53.5981 53.7862 47.47 52.4091 40.4943 52.4091V53.4091ZM58.3978 57.4425C63.4988 60.1272 67.4592 63.8954 70.2896 68.7518L71.1536 68.2482C68.2264 63.2258 64.1262 59.3273 58.8636 56.5575L58.3978 57.4425ZM70.2896 68.7518C73.1173 73.6035 74.5398 79.2866 74.5398 85.8182H75.5398C75.5398 79.1376 74.0834 73.2753 71.1536 68.2482L70.2896 68.7518ZM74.5398 85.8182C74.5398 92.4087 73.0727 98.0882 70.1581 102.876L71.0123 103.396C74.0372 98.4269 75.5398 92.561 75.5398 85.8182H74.5398ZM70.157 102.878C67.2691 107.672 63.2063 111.365 57.9546 113.961L58.3977 114.857C63.8127 112.181 68.0225 108.359 71.0135 103.394L70.157 102.878ZM57.9536 113.961C52.732 116.557 46.614 117.864 39.5852 117.864V118.864C46.7383 118.864 53.0142 117.534 58.3987 114.857L57.9536 113.961ZM39.5852 117.864H15.5852V118.864H39.5852V117.864ZM16.0852 118.364V98.7273H15.0852V118.364H16.0852ZM15.5852 99.2273H34.4943V98.2273H15.5852V99.2273ZM34.4943 99.2273C37.5203 99.2273 40.1304 98.7025 42.3062 97.6303L41.8642 96.7333C39.8583 97.7218 37.4077 98.2273 34.4943 98.2273V99.2273ZM42.3088 97.629C44.5122 96.5274 46.2086 94.9613 47.3817 92.9321L46.516 92.4316C45.4467 94.2812 43.9007 95.7151 41.8616 96.7346L42.3088 97.629ZM47.3788 92.9371C48.5834 90.9082 49.1761 88.529 49.1761 85.8182H48.1761C48.1761 88.38 47.6173 90.5766 46.5189 92.4265L47.3788 92.9371ZM49.1761 85.8182C49.1761 83.0787 48.5841 80.7112 47.3752 78.7387L46.5226 79.2613C47.6166 81.0464 48.1761 83.2243 48.1761 85.8182H49.1761ZM47.38 78.7468C46.2047 76.7457 44.505 75.2243 42.2984 74.1841L41.872 75.0886C43.9079 76.0484 45.4506 77.4362 46.5177 79.2532L47.38 78.7468ZM42.3062 74.1879C40.1304 73.1157 37.5203 72.5909 34.4943 72.5909V73.5909C37.4077 73.5909 39.8583 74.0964 41.8642 75.0849L42.3062 74.1879ZM34.4943 72.5909H25.5852V73.5909H34.4943V72.5909ZM25.0852 73.0909V146H26.0852V73.0909H25.0852ZM25.5852 145.5H0.3125V146.5H25.5852V145.5ZM84.3125 146H83.8125V146.5H84.3125V146ZM84.3125 52.9091V52.4091H83.8125V52.9091H84.3125ZM142.631 56.6818L142.412 57.1316L142.631 56.6818ZM154.722 67.5455L155.149 67.2854L155.149 67.2854L154.722 67.5455ZM154.585 101.409L154.166 101.137L154.165 101.139L154.585 101.409ZM142.176 111.773L141.976 111.315L141.975 111.315L142.176 111.773ZM99.5852 115.273H99.0852V115.773H99.5852V115.273ZM99.5852 95.6364V95.1364H99.0852V95.6364H99.5852ZM126.085 94.5455L126.249 95.0177L126.253 95.0163L126.085 94.5455ZM130.949 90.9545L130.54 90.6668L130.536 90.6719L130.949 90.9545ZM130.949 78.0455L130.532 78.3211L130.537 78.3297L130.949 78.0455ZM126.085 74.3182L125.903 74.7839L125.911 74.7869L126.085 74.3182ZM109.585 73.0909V72.5909H109.085V73.0909H109.585ZM109.585 146V146.5H110.085V146H109.585ZM138.858 103.273L139.297 103.034L139.155 102.773H138.858V103.273ZM162.131 146V146.5H162.972L162.57 145.761L162.131 146ZM134.676 146L134.235 146.235L134.376 146.5H134.676V146ZM111.949 103.273V102.773H111.117L111.507 103.508L111.949 103.273ZM84.8125 146V52.9091H83.8125V146H84.8125ZM84.3125 53.4091H124.494V52.4091H84.3125V53.4091ZM124.494 53.4091C131.343 53.4091 137.311 54.6554 142.412 57.1316L142.849 56.232C137.587 53.6779 131.464 52.4091 124.494 52.4091V53.4091ZM142.412 57.1316C147.512 59.6067 151.468 63.1637 154.295 67.8055L155.149 67.2854C152.218 62.4727 148.113 58.7873 142.849 56.232L142.412 57.1316ZM154.295 67.8055C157.117 72.4404 158.54 78.0132 158.54 84.5455H159.54C159.54 77.8655 158.084 72.105 155.149 67.2854L154.295 67.8055ZM158.54 84.5455C158.54 91.1371 157.072 96.6586 154.166 101.137L155.005 101.681C158.038 97.0081 159.54 91.2871 159.54 84.5455H158.54ZM154.165 101.139C151.282 105.626 147.225 109.018 141.976 111.315L142.377 112.231C147.794 109.861 152.009 106.344 155.006 101.679L154.165 101.139ZM141.975 111.315C136.748 113.615 130.622 114.773 123.585 114.773V115.773C130.73 115.773 136.998 114.597 142.378 112.23L141.975 111.315ZM123.585 114.773H99.5852V115.773H123.585V114.773ZM100.085 115.273V95.6364H99.0852V115.273H100.085ZM99.5852 96.1364H118.494V95.1364H99.5852V96.1364ZM118.494 96.1364C121.502 96.1364 124.091 95.7684 126.249 95.0177L125.921 94.0732C123.897 94.777 121.426 95.1364 118.494 95.1364V96.1364ZM126.253 95.0163C128.46 94.2283 130.173 92.972 131.361 91.2372L130.536 90.6719C129.483 92.2098 127.953 93.3474 125.917 94.0746L126.253 95.0163ZM131.358 91.2423C132.585 89.4986 133.176 87.2524 133.176 84.5455H132.176C132.176 87.1112 131.616 89.1378 130.54 90.6668L131.358 91.2423ZM133.176 84.5455C133.176 81.809 132.585 79.5342 131.36 77.7612L130.537 78.3297C131.616 79.89 132.176 81.9486 132.176 84.5455H133.176ZM131.366 77.7698C130.18 75.9744 128.468 74.6699 126.259 73.8495L125.911 74.7869C127.945 75.5422 129.476 76.7225 130.532 78.3211L131.366 77.7698ZM126.267 73.8526C124.103 73.0056 121.507 72.5909 118.494 72.5909V73.5909C121.421 73.5909 123.886 73.9944 125.903 74.7838L126.267 73.8526ZM118.494 72.5909H109.585V73.5909H118.494V72.5909ZM109.085 73.0909V146H110.085V73.0909H109.085ZM109.585 145.5H84.3125V146.5H109.585V145.5ZM138.419 103.512L161.692 146.239L162.57 145.761L139.297 103.034L138.419 103.512ZM162.131 145.5H134.676V146.5H162.131V145.5ZM135.118 145.765L112.39 103.038L111.507 103.508L134.235 146.235L135.118 145.765ZM111.949 103.773H138.858V102.773H111.949V103.773ZM193.994 146V146.5H194.366L194.473 146.145L193.994 146ZM166.722 146L166.247 145.843L166.03 146.5H166.722V146ZM197.449 52.9091V52.4091H197.087L196.974 52.7524L197.449 52.9091ZM231.994 52.9091L232.469 52.7524L232.356 52.4091H231.994V52.9091ZM262.722 146V146.5H263.413L263.196 145.843L262.722 146ZM235.449 146L234.97 146.145L235.078 146.5H235.449V146ZM215.085 78.5455L215.564 78.401L215.457 78.0455H215.085V78.5455ZM214.358 78.5455V78.0455H213.987L213.879 78.401L214.358 78.5455ZM188.903 109.273V108.773H188.403V109.273H188.903ZM240.176 109.273H240.676V108.773H240.176V109.273ZM240.176 128.182V128.682H240.676V128.182H240.176ZM188.903 128.182H188.403V128.682H188.903V128.182ZM193.994 145.5H166.722V146.5H193.994V145.5ZM167.196 146.157L197.924 53.0658L196.974 52.7524L166.247 145.843L167.196 146.157ZM197.449 53.4091H231.994V52.4091H197.449V53.4091ZM231.52 53.0658L262.247 146.157L263.196 145.843L232.469 52.7524L231.52 53.0658ZM262.722 145.5H235.449V146.5H262.722V145.5ZM235.928 145.855L215.564 78.401L214.607 78.69L234.97 146.145L235.928 145.855ZM215.085 78.0455H214.358V79.0455H215.085V78.0455ZM213.879 78.401L193.516 145.855L194.473 146.145L214.837 78.69L213.879 78.401ZM188.903 109.773H240.176V108.773H188.903V109.773ZM239.676 109.273V128.182H240.676V109.273H239.676ZM240.176 127.682H188.903V128.682H240.176V127.682ZM189.403 128.182V109.273H188.403V128.182H189.403ZM297.188 146H296.688V146.5H297.188V146ZM297.188 52.9091V52.4091H296.688V52.9091H297.188ZM357.46 58.5L357.224 58.9409L357.227 58.9421L357.46 58.5ZM373.642 74.5L373.203 74.7388L373.204 74.741L373.642 74.5ZM373.688 124.455L374.126 124.694L374.127 124.693L373.688 124.455ZM357.597 140.455L357.832 140.896L357.833 140.895L357.597 140.455ZM322.46 124.545H321.96V125.045H322.46V124.545ZM343.869 122.318L343.663 121.863L343.661 121.864L343.869 122.318ZM351.324 114.636L350.872 114.422L350.871 114.425L351.324 114.636ZM351.278 84.2727L350.827 84.4873L350.828 84.4903L351.278 84.2727ZM343.642 76.5909L343.439 77.0476L343.44 77.0483L343.642 76.5909ZM322.46 74.3636V73.8636H321.96V74.3636H322.46ZM333.006 145.5H297.188V146.5H333.006V145.5ZM297.688 146V52.9091H296.688V146H297.688ZM297.188 53.4091H332.642V52.4091H297.188V53.4091ZM332.642 53.4091C342.153 53.4091 350.341 55.2598 357.224 58.9409L357.696 58.0591C350.64 54.2856 342.283 52.4091 332.642 52.4091V53.4091ZM357.227 58.9421C364.139 62.593 369.462 67.8555 373.203 74.7388L374.081 74.2612C370.247 67.2051 364.781 61.801 357.694 58.0579L357.227 58.9421ZM373.204 74.741C376.973 81.5918 378.869 89.8231 378.869 99.4545H379.869C379.869 89.692 377.947 81.287 374.08 74.259L373.204 74.741ZM378.869 99.4545C378.869 109.086 376.988 117.334 373.248 124.216L374.127 124.693C377.962 117.636 379.869 109.217 379.869 99.4545H378.869ZM373.249 124.215C369.507 131.07 364.214 136.333 357.36 140.014L357.833 140.895C364.858 137.122 370.292 131.718 374.126 124.694L373.249 124.215ZM357.362 140.013C350.508 143.665 342.395 145.5 333.006 145.5V146.5C342.526 146.5 350.807 144.638 357.832 140.896L357.362 140.013ZM322.46 125.045H332.097V124.045H322.46V125.045ZM332.097 125.045C336.754 125.045 340.754 124.295 344.078 122.773L343.661 121.864C340.5 123.311 336.651 124.045 332.097 124.045V125.045ZM344.076 122.774C347.47 121.234 350.036 118.579 351.777 114.848L350.871 114.425C349.218 117.967 346.814 120.433 343.663 121.863L344.076 122.774ZM351.776 114.851C353.548 111.119 354.415 105.973 354.415 99.4545H353.415C353.415 105.905 352.554 110.881 350.872 114.422L351.776 114.851ZM354.415 99.4545C354.415 92.9349 353.533 87.7883 351.729 84.0551L350.828 84.4903C352.539 88.0299 353.415 93.0045 353.415 99.4545H354.415ZM351.73 84.0582C349.957 80.3246 347.328 77.6715 343.844 76.1335L343.44 77.0483C346.683 78.48 349.146 80.9481 350.827 84.4873L351.73 84.0582ZM343.846 76.1342C340.431 74.6131 336.266 73.8636 331.369 73.8636V74.8636C336.17 74.8636 340.187 75.599 343.439 77.0476L343.846 76.1342ZM331.369 73.8636H322.46V74.8636H331.369V73.8636ZM321.96 74.3636V124.545H322.96V74.3636H321.96ZM380.744 52.9091V52.4091H379.909L380.304 53.1452L380.744 52.9091ZM408.926 52.9091L409.377 52.6924L409.241 52.4091H408.926V52.9091ZM427.108 90.7273L426.657 90.9439L426.794 91.2273H427.108V90.7273ZM427.835 90.7273V91.2273H428.15L428.286 90.9439L427.835 90.7273ZM446.017 52.9091V52.4091H445.703L445.566 52.6924L446.017 52.9091ZM474.199 52.9091L474.64 53.1452L475.034 52.4091H474.199V52.9091ZM440.017 116.727L439.576 116.491L439.517 116.602V116.727H440.017ZM440.017 146V146.5H440.517V146H440.017ZM414.926 146H414.426V146.5H414.926V146ZM414.926 116.727H415.426V116.602L415.367 116.491L414.926 116.727ZM380.744 53.4091H408.926V52.4091H380.744V53.4091ZM408.476 53.1257L426.657 90.9439L427.559 90.5106L409.377 52.6924L408.476 53.1257ZM427.108 91.2273H427.835V90.2273H427.108V91.2273ZM428.286 90.9439L446.468 53.1257L445.566 52.6924L427.385 90.5106L428.286 90.9439ZM446.017 53.4091H474.199V52.4091H446.017V53.4091ZM473.758 52.673L439.576 116.491L440.458 116.963L474.64 53.1452L473.758 52.673ZM439.517 116.727V146H440.517V116.727H439.517ZM440.017 145.5H414.926V146.5H440.017V145.5ZM415.426 146V116.727H414.426V146H415.426ZM415.367 116.491L381.185 52.673L380.304 53.1452L414.485 116.963L415.367 116.491ZM537.528 52.9091V52.4091H537.028V52.9091H537.528ZM562.801 52.9091H563.301V52.4091H562.801V52.9091ZM557.71 130.955L557.292 130.681L557.292 130.681L557.71 130.955ZM543.619 142.909L543.829 143.363L543.831 143.362L543.619 142.909ZM501.528 142.909L501.317 143.362L501.319 143.363L501.528 142.909ZM487.438 130.955L487.017 131.225L487.019 131.228L487.438 130.955ZM482.438 52.9091V52.4091H481.938V52.9091H482.438ZM507.71 52.9091H508.21V52.4091H507.71V52.9091ZM509.619 118.091L509.183 118.335L509.184 118.338L509.619 118.091ZM514.892 123.364L514.645 123.798L514.648 123.8L514.892 123.364ZM530.347 123.364L530.593 123.798L530.593 123.798L530.347 123.364ZM535.619 118.091L536.054 118.338L536.056 118.335L535.619 118.091ZM537.528 53.4091H562.801V52.4091H537.528V53.4091ZM562.301 52.9091V112.545H563.301V52.9091H562.301ZM562.301 112.545C562.301 119.554 560.625 125.592 557.292 130.681L558.128 131.228C561.583 125.954 563.301 119.719 563.301 112.545H562.301ZM557.292 130.681C553.983 135.748 549.361 139.674 543.408 142.456L543.831 143.362C549.939 140.508 554.71 136.464 558.129 131.228L557.292 130.681ZM543.41 142.455C537.457 145.207 530.531 146.591 522.619 146.591V147.591C530.647 147.591 537.721 146.187 543.829 143.363L543.41 142.455ZM522.619 146.591C514.647 146.591 507.69 145.207 501.738 142.455L501.319 143.363C507.427 146.187 514.531 147.591 522.619 147.591V146.591ZM501.74 142.456C495.787 139.674 491.165 135.748 487.856 130.681L487.019 131.228C490.438 136.464 495.209 140.508 501.317 143.362L501.74 142.456ZM487.858 130.684C484.584 125.595 482.938 119.555 482.938 112.545H481.938C481.938 119.717 483.624 125.951 487.017 131.225L487.858 130.684ZM482.938 112.545V52.9091H481.938V112.545H482.938ZM482.438 53.4091H507.71V52.4091H482.438V53.4091ZM507.21 52.9091V110.364H508.21V52.9091H507.21ZM507.21 110.364C507.21 113.319 507.864 115.98 509.183 118.335L510.056 117.847C508.829 115.656 508.21 113.166 508.21 110.364H507.21ZM509.184 118.338C510.502 120.659 512.324 122.481 514.645 123.798L515.139 122.929C512.975 121.701 511.282 120.008 510.054 117.844L509.184 118.338ZM514.648 123.8C517.003 125.119 519.664 125.773 522.619 125.773V124.773C519.817 124.773 517.327 124.154 515.136 122.927L514.648 123.8ZM522.619 125.773C525.604 125.773 528.266 125.119 530.593 123.798L530.1 122.929C527.942 124.154 525.453 124.773 522.619 124.773V125.773ZM530.593 123.798C532.914 122.481 534.737 120.659 536.054 118.338L535.184 117.844C533.956 120.008 532.264 121.701 530.1 122.929L530.593 123.798ZM536.056 118.335C537.374 115.98 538.028 113.319 538.028 110.364H537.028C537.028 113.166 536.41 115.656 535.183 117.847L536.056 118.335ZM538.028 110.364V52.9091H537.028V110.364H538.028ZM572.267 73.2727H571.767V73.7727H572.267V73.2727ZM572.267 52.9091V52.4091H571.767V52.9091H572.267ZM653.176 52.9091H653.676V52.4091H653.176V52.9091ZM653.176 73.2727V73.7727H653.676V73.2727H653.176ZM625.176 73.2727V72.7727H624.676V73.2727H625.176ZM625.176 146V146.5H625.676V146H625.176ZM600.267 146H599.767V146.5H600.267V146ZM600.267 73.2727H600.767V72.7727H600.267V73.2727ZM572.767 73.2727V52.9091H571.767V73.2727H572.767ZM572.267 53.4091H653.176V52.4091H572.267V53.4091ZM652.676 52.9091V73.2727H653.676V52.9091H652.676ZM653.176 72.7727H625.176V73.7727H653.176V72.7727ZM624.676 73.2727V146H625.676V73.2727H624.676ZM625.176 145.5H600.267V146.5H625.176V145.5ZM600.767 146V73.2727H599.767V146H600.767ZM600.267 72.7727H572.267V73.7727H600.267V72.7727Z" fill="black"></path> <path d="M427.506 91.3587L409.295 53.5H446.196L427.506 91.3587Z" fill="black" stroke="black"></path> <rect x="272" y="53" width="35" height="93" fill="black"></rect> <path d="M198.998 128.5H230.002L235.32 145.5H193.68L198.998 128.5Z" fill="black" stroke="black"></path> <path d="M307.637 124.325C308.298 124.148 308.782 124.069 309.09 124.087C309.399 124.106 309.647 124.09 309.836 124.039C310.779 123.786 311.805 122.804 312.913 121.091C314.056 119.319 314.98 117.959 315.687 117.012C317.507 116.069 318.735 114.426 319.37 112.082C320.041 109.678 320.928 107.519 322.033 105.606C323.449 103.154 324.544 101.015 325.318 99.1901C326.128 97.3051 326.957 96.2488 327.806 96.0214C328.56 95.8192 329.198 96.0276 329.717 96.6466C330.369 97.3818 330.834 97.8892 331.111 98.1688C330.973 98.408 330.954 98.7163 331.055 99.0936C331.169 99.5181 331.163 99.8735 331.038 100.16C330.925 100.493 330.718 100.852 330.416 101.236C330.115 101.62 329.873 102.039 329.691 102.492L328.731 104.569C327.834 106.124 327.095 107.99 326.516 110.167C325.937 112.345 325.332 114.427 324.702 116.416C324.107 118.345 323.314 119.821 322.325 120.844C320.255 123.118 318.705 125.353 317.676 127.549C316.682 129.686 315.434 131.537 313.932 133.102C313.744 133.153 313.619 133.161 313.56 133.126C313.5 133.092 313.423 133.087 313.328 133.112C312.904 133.226 312.623 133.403 312.484 133.642C312.346 133.881 312.112 134.045 311.782 134.133C309.86 133.941 308.273 133.582 307.02 133.059C305.755 132.488 303.925 131.032 301.528 128.692C300.914 128.098 300.328 127.421 299.771 126.66C299.188 125.805 298.589 125.081 297.975 124.487L295.136 121.533C294.365 120.728 293.682 119.218 293.088 117.001C292.835 116.058 292.55 114.618 292.234 112.681C291.917 110.743 291.701 109.184 291.586 108.001C290.516 109.855 289.658 112.031 289.013 114.529C288.678 115.731 288.36 116.903 288.06 118.045C287.759 119.187 287.446 120.282 287.12 121.33C286.23 124.045 285.216 126.769 284.077 129.5C282.961 132.125 282.537 134.033 282.806 135.225C282.391 135.942 281.999 136.932 281.63 138.194C281.26 139.455 280.994 140.538 280.832 141.441C280.704 142.284 280.761 142.496 281.002 142.077C280.263 144.601 278.764 146.645 276.504 148.211C274.244 149.777 272.03 150.851 269.86 151.432C269.423 151.499 268.986 151.565 268.549 151.632C268.112 151.699 267.675 151.765 267.238 151.832C266.423 151.999 265.533 151.884 264.567 151.486L262.027 150.498C260.316 150.148 258.962 149.247 257.967 147.795C256.971 146.343 256.22 144.674 255.715 142.787C256.098 139.5 256.068 136.652 255.624 134.243C255.194 131.881 255.123 129.449 255.413 126.945C255.798 123.101 256.827 119.488 258.5 116.108C260.172 112.728 262.025 109.553 264.06 106.581C265.702 104.22 267.607 101.612 269.774 98.7565C271.975 95.8413 273.493 93.4884 274.327 91.6977C275.773 91.0575 276.927 90.2682 277.788 89.3299C278.683 88.3317 279.591 87.3808 280.511 86.477C281.432 85.5732 282.623 84.9254 284.085 84.5336C286.255 83.9523 287.629 83.9884 288.209 84.6419C288.788 85.2954 289.632 86.1814 290.741 87.2998C290.937 85.5791 290.985 83.8727 290.885 82.1806C290.859 81.3283 290.863 80.4932 290.897 79.6754C290.977 78.8449 291.094 78.0553 291.248 77.3066C291.03 74.2307 291.163 70.8588 291.646 67.1908C292.129 63.5228 292.682 60.1142 293.304 56.965C293.829 54.3979 294.363 51.9549 294.904 49.6362C295.48 47.2576 295.881 45.7348 296.106 45.0677C296.962 42.4121 298.03 40.0786 299.311 38.0672C300.544 36.0685 301.534 34.0087 302.28 31.8878C302.92 30.5031 303.493 28.9597 303.997 27.2575C304.511 25.4011 304.982 24.2384 305.413 23.7692C308.244 23.769 309.913 24.4338 310.421 25.7636C310.929 27.0935 311.417 28.631 311.884 30.376C312.289 31.8853 312.552 33.4325 312.673 35.0176L310.554 46.3526C309.891 49.159 309.311 51.9936 308.814 54.8564C308.317 57.7192 307.904 60.6103 307.574 63.5295C306.739 67.3929 305.625 70.8761 304.232 73.979C303.536 75.5305 302.899 77.1165 302.322 78.737C301.793 80.3449 301.299 81.9936 300.842 83.6832C300.777 84.7621 300.541 85.8617 300.134 86.9819C299.93 87.542 299.75 88.0958 299.593 88.6432C299.424 89.1436 299.261 89.6674 299.104 90.2149L298.188 96.9815C297.824 97.8878 297.73 98.6711 297.907 99.3314C298.21 99.7053 298.405 100.057 298.494 100.388L298.683 101.095C298.797 101.519 298.911 101.944 299.024 102.368C299.138 102.793 299.228 103.224 299.295 103.661C299.362 104.098 299.458 104.552 299.584 105.024C299.698 105.448 299.818 105.897 299.945 106.368C301.234 111.179 302.686 115.845 304.302 120.366C304.202 120.747 304.17 121.008 304.208 121.149C304.385 121.809 304.922 122.398 305.819 122.916C306.704 123.387 307.31 123.857 307.637 124.325ZM284.841 93.5817L281.911 96.7934C281.266 97.2188 280.506 98.1555 279.63 99.6033L277.398 103.159L275.147 106.643C274.816 108.046 274.198 109.324 273.293 110.476C272.389 111.629 271.698 112.825 271.221 114.064C270.538 115.663 269.941 117.491 269.43 119.549C268.92 121.607 268.877 123.236 269.3 124.437C269.291 125.349 269.247 126.22 269.166 127.051C269.12 127.821 269.037 128.551 268.918 129.24C268.668 130.571 268.752 132.015 269.169 133.571C269.497 134.797 270.069 135.327 270.883 135.159C271.698 134.991 272.294 134.857 272.671 134.756C273.833 133.433 274.952 131.667 276.029 129.458C277.139 127.189 278.072 124.917 278.828 122.642C279.63 120.354 280.097 118.511 280.227 117.111C280.784 115.041 281.452 112.815 282.229 110.433C283.006 108.051 283.982 105.843 285.155 103.81L287.242 96.8814C287.273 96.6203 287.31 96.3828 287.354 96.1689C287.385 95.9078 287.423 95.6703 287.467 95.4563C287.567 95.0756 287.547 94.6259 287.408 94.1071C287.244 93.4939 286.904 92.9785 286.387 92.5608C286.01 92.6619 285.699 92.8211 285.454 93.0384C285.209 93.2557 285.005 93.4368 284.841 93.5817ZM359.502 81.3106L359.664 82.4805C359.847 82.7853 359.904 83.3766 359.836 84.2542C359.516 84.9466 359.397 85.6355 359.48 86.3211C359.392 86.749 359.316 87.1233 359.25 87.4442C359.184 87.7651 359.168 88.1741 359.2 88.671C359.163 89.2875 359.269 89.9668 359.518 90.7087C359.666 91.0734 359.768 91.4507 359.821 91.8407C359.91 92.1708 359.975 92.5073 360.016 92.8501C360.105 93.9383 360.236 94.9902 360.407 96.0059C360.578 97.0217 360.755 98.061 360.939 99.1239C361.217 100.161 361.439 101.366 361.604 102.737C361.769 104.108 361.896 105.338 361.986 106.426C362.612 107.067 363.038 107.711 363.262 108.359C363.498 109.054 363.993 109.578 364.745 109.933C366.556 109.144 367.945 108.292 368.913 107.375C369.88 106.459 370.731 105.296 371.466 103.886C372.132 103.353 372.633 102.865 372.969 102.421C373.258 101.99 373.699 101.468 374.293 100.854L375.121 99.4183C376.089 98.5018 376.625 97.9539 376.728 97.7745C376.797 97.6549 376.89 97.529 377.006 97.3967C377.17 97.2519 377.333 97.107 377.496 96.9621C378.822 95.4948 379.757 94.0814 380.303 92.722C380.859 91.9665 381.291 91.219 381.598 90.4794C381.836 89.8595 382.435 89.1684 383.393 88.4061C383.804 87.4872 384.317 86.6672 384.933 85.9462C385.548 85.2252 386.062 84.4052 386.473 83.4863C386.991 83.3473 387.394 83.3405 387.68 83.466C387.847 83.5224 388.014 83.5788 388.181 83.6353C388.395 83.679 388.609 83.7228 388.822 83.7666C389.308 84.4454 389.563 85.211 389.59 86.0633C389.616 86.9157 389.481 87.7352 389.187 88.5218C388.879 89.2614 388.745 89.7019 388.783 89.8434C388.808 89.9377 388.786 90.0447 388.717 90.1643C388.522 90.5702 388.263 91.0187 387.94 91.5098C387.604 91.9537 387.345 92.4022 387.163 92.8553C386.919 93.8307 386.655 94.3563 386.372 94.4321C386.089 94.5079 385.879 94.6654 385.741 94.9046C385.031 95.6509 384.542 96.1862 384.275 96.5105C383.987 96.9417 383.545 97.4644 382.952 98.0784C382.1 98.8626 381.588 99.4042 381.415 99.7032C381.243 100.002 381.092 100.194 380.963 100.279C380.173 101.856 379.349 103.214 378.491 104.354C377.703 105.374 376.926 106.719 376.161 108.391C375.859 108.775 375.558 109.159 375.256 109.543C374.955 109.927 374.726 110.393 374.569 110.94C373.872 111.734 373.34 112.483 372.972 113.188C372.605 113.893 372.193 114.711 371.734 115.643C371.244 116.077 370.739 116.642 370.217 117.338C369.58 118.166 368.992 118.804 368.455 119.251C368.257 119.456 367.913 119.775 367.423 120.21C367.015 120.572 366.598 120.81 366.174 120.924C365.139 121.403 364.077 121.587 362.985 121.475C362 121.385 361.028 121.342 360.069 121.346C359.54 120.882 358.942 120.536 358.275 120.311C357.148 119.5 356.206 118.439 355.45 117.125C354.693 115.811 353.912 114.403 353.105 112.9C352.407 113.694 351.864 114.496 351.475 115.308C351.099 116.167 350.414 117.008 349.421 117.83C348.718 118.979 347.991 120.134 347.241 121.296C346.478 122.41 345.662 123.513 344.792 124.606C343.969 125.686 343.135 126.819 342.29 128.006C341.433 129.145 340.582 130.309 339.737 131.495C339.185 132.452 338.742 132.874 338.409 132.761C337.838 134.027 336.417 134.761 334.146 134.965C333.29 134.79 332.353 134.687 331.334 134.657C330.623 134.645 329.793 134.565 328.843 134.415C327.163 134.561 325.629 134.214 324.241 133.373C322.853 132.532 321.58 131.457 320.421 130.15C319.923 129.424 319.521 128.774 319.215 128.199C319.08 127.881 318.914 127.546 318.719 127.194C318.523 126.842 318.321 126.467 318.113 126.067C317.851 125.278 317.539 124.679 317.177 124.271C316.849 123.803 316.717 123.308 316.779 122.785C316.527 122.6 316.398 122.306 316.391 121.904C316.359 121.407 316.311 121.04 316.248 120.804C315.8 119.509 315.539 118.063 315.465 116.465C315.39 114.867 315.472 113.379 315.709 112.001C315.866 111.454 316.117 110.881 316.462 110.283C316.622 109.937 316.688 109.616 316.659 109.32C316.643 109.072 316.721 108.798 316.894 108.499C317.054 108.153 317.261 107.794 317.515 107.423C317.886 106.919 318.14 106.548 318.278 106.308C318.426 105.915 318.579 105.545 318.739 105.199C318.934 104.793 319.165 104.428 319.432 104.104C319.699 103.78 319.936 103.438 320.143 103.079C320.35 102.72 320.557 102.362 320.764 102.003C321.006 101.584 321.177 101.184 321.277 100.804C321.412 100.363 321.69 99.9855 322.111 99.6704C322.311 98.909 322.59 98.2529 322.948 97.7021C323.306 97.1512 323.705 96.5641 324.145 95.9408C325.23 93.5774 326.769 91.3959 328.76 89.3962C330.799 87.3839 332.517 85.306 333.914 83.1624C334.499 82.7025 334.976 82.2207 335.347 81.717C335.717 81.2133 336.088 80.7096 336.458 80.2059C337.36 78.8523 338.544 78.181 340.013 78.1918L343.958 78.1965C345.128 78.7927 346.276 79.3952 347.399 80.0041C348.523 80.6129 349.554 81.3477 350.492 82.2084C350.81 82.0727 351.157 81.9544 351.534 81.8533C351.899 81.705 352.3 81.5976 352.737 81.531C353.611 81.3979 354.488 81.087 355.368 80.5984C355.651 80.5226 355.915 80.376 356.161 80.1587C356.406 79.9414 356.622 79.8075 356.811 79.7569C358.352 79.8494 359.249 80.3673 359.502 81.3106ZM341.394 88.4375C339.176 90.3462 337.25 92.404 335.617 94.6108C333.984 96.8176 332.477 99.117 331.096 101.509C330.923 101.808 330.727 102.113 330.507 102.425C330.322 102.677 330.143 102.952 329.971 103.251C329.785 103.503 329.606 103.779 329.434 104.078C329.261 104.377 329.112 104.669 328.987 104.956C328.736 105.528 328.534 106.189 328.38 106.938C328.227 107.687 328.085 108.382 327.953 109.024C327.91 109.238 327.866 109.452 327.822 109.666C327.766 109.832 327.703 109.976 327.634 110.095C327.565 110.215 327.502 110.358 327.446 110.525C327.389 110.692 327.333 110.858 327.276 111.025C327.214 111.547 327.27 112.038 327.443 112.497C327.579 112.814 327.742 113.327 327.931 114.034L328.31 115.449C328.386 115.732 328.56 116.191 328.831 116.826C329.392 117.788 329.811 118.788 330.089 119.825C330.292 120.58 330.609 121.481 331.041 122.528C331.473 123.575 332.023 124.211 332.69 124.436C333.404 124.649 334.019 124.586 334.534 124.246C335.131 123.833 335.636 123.546 336.048 123.385C338.667 119.954 341.066 116.455 343.244 112.888C345.423 109.322 347.176 105.491 348.505 101.394C347.697 99.1334 347.035 96.7579 346.52 94.2675C346.042 91.9185 345.255 89.8294 344.158 88.0002C343.718 87.8654 343.25 87.9147 342.757 88.1481C342.392 88.2964 341.938 88.3928 341.394 88.4375ZM393.851 91.2149L394.89 91.6949C395.227 92.009 395.295 92.5468 395.095 93.3082C394.994 93.6889 394.911 94.0397 394.846 94.3606C394.827 94.6689 394.802 94.9536 394.771 95.2146C394.869 95.3907 394.967 95.5667 395.064 95.7427C395.15 95.8716 395.228 95.9768 395.301 96.0585C395.471 96.3162 395.506 96.6354 395.406 97.0161C396.205 97.358 396.775 97.7867 397.115 98.3021C397.553 98.9935 398.054 99.5418 398.617 99.9469C399.348 100.408 399.969 100.747 400.482 100.964C401.09 101.155 401.698 101.447 402.309 101.839C402.752 101.417 403.092 101.174 403.327 101.111C403.657 101.023 404.01 100.827 404.383 100.525C404.907 99.2725 405.214 97.775 405.303 96.0324C405.296 95.6298 405.277 95.1801 405.245 94.6831C405.213 94.1862 405.146 93.7491 405.045 93.3718C404.669 92.1582 403.951 90.9858 402.889 89.8548C401.815 88.6766 400.955 87.5422 400.309 86.4515C399.717 85.7508 399.372 84.9335 399.273 83.9994C399.149 82.9711 398.898 82.1284 398.52 81.4715C398.346 81.0125 398.104 80.6731 397.792 80.4533C397.66 80.3371 397.528 80.2209 397.395 80.1046C397.25 79.9413 397.106 79.7779 396.961 79.6145C396.557 78.8633 396.259 78.0332 396.066 77.1245C395.908 76.1559 395.481 75.411 394.785 74.8897C394.37 75.6073 393.765 76.9322 392.968 78.8644C392.159 80.7494 391.35 82.6344 390.541 84.5194C389.779 86.3918 389.208 87.6569 388.828 88.3147C388.681 88.708 388.51 89.1077 388.315 89.5137C388.155 89.8598 387.965 90.1887 387.745 90.5004C387.526 90.812 387.318 91.1709 387.124 91.5768C386.964 91.923 386.81 92.2928 386.663 92.6861C385.659 94.9771 384.9 96.6717 384.385 97.7701C383.918 98.8557 383.457 99.965 383.002 101.098C382.548 102.231 381.82 104.043 380.82 106.536C380.503 107.429 379.959 108.889 379.188 110.916C378.369 112.955 377.609 114.928 376.907 116.835C376.145 118.707 375.715 119.934 375.618 120.516C375.305 121.611 374.795 122.633 374.089 123.58C373.382 124.528 372.416 125.166 371.19 125.494C371.177 125.447 370.981 125.095 370.603 124.438C370.238 123.828 369.883 123.165 369.539 122.449C369.161 121.792 368.942 121.446 368.882 121.411C369.014 120.77 369.074 120.147 369.064 119.543C369.067 118.986 369.328 118.36 369.85 117.664C369.874 117 370.145 115.841 370.662 114.186C371.166 112.484 371.787 110.649 372.523 108.683C373.248 106.669 373.939 104.815 374.597 103.122C375.209 101.442 375.61 100.298 375.801 99.6911C376.25 98.9137 376.862 97.6124 377.636 95.7872C378.364 93.9746 379.092 92.162 379.819 90.3495C380.581 88.4771 381.133 87.1413 381.475 86.342C381.558 84.9548 382.007 83.141 382.823 80.9005C383.672 78.6003 384.586 76.2575 385.565 73.8722C386.578 71.4271 387.384 69.3408 387.982 67.6133C388.252 66.7323 388.476 65.9646 388.654 65.3102C388.833 64.6558 389.022 63.9478 389.222 63.1864C389.499 62.708 389.715 62.1951 389.872 61.6476C389.871 60.8896 389.631 60.3725 389.153 60.0963C388.721 59.8074 388.447 59.3501 388.33 58.7243C388.749 56.8933 389.303 55.6581 389.991 55.0187C390.714 54.3196 391.331 53.3203 391.842 52.0206C392.307 51.4917 392.679 51.0886 392.958 50.8115C393.367 50.4493 393.726 49.9991 394.037 49.4609C394.521 48.6236 395.443 48.1995 396.805 48.1884C398.202 48.1176 399.087 48.3099 399.462 48.7656C399.585 49.0359 399.686 49.4132 399.765 49.8975C399.781 50.146 399.797 50.3944 399.813 50.6429C399.829 50.8913 399.845 51.1398 399.861 51.3883C399.881 51.838 399.894 52.2642 399.901 52.6668C399.907 53.0694 399.914 53.472 399.921 53.8745C399.915 54.23 399.922 54.6326 399.941 55.0823C399.948 55.4849 399.961 55.9111 399.981 56.3608C400.07 57.449 400.17 58.4837 400.282 59.4649C400.393 60.4461 400.94 61.2601 401.922 61.9068C401.954 62.4037 402.129 62.9634 402.447 63.5858C402.766 64.2082 403.095 64.7771 403.435 65.2925C404.433 68.2605 405.778 71.1101 407.47 73.8413C409.162 76.5725 410.856 79.0254 412.551 81.1999C412.677 81.6716 412.874 82.1243 413.142 82.558C413.41 82.9917 413.701 83.4191 414.016 83.8402C415.108 86.7829 415.628 89.8537 415.575 93.0525C415.542 94.6283 415.509 96.2042 415.477 97.78C415.491 99.3432 415.499 100.883 415.501 102.399C415.188 103.494 415.007 104.705 414.958 106.032C414.919 107.206 414.687 108.228 414.264 109.1C413.994 109.981 413.797 110.944 413.673 111.988C413.548 113.032 412.996 113.989 412.015 114.858C411.453 115.211 410.816 115.382 410.105 115.37C409.442 115.346 408.852 115.504 408.337 115.844C407.925 116.005 407.532 116.237 407.158 116.539C406.866 116.769 406.507 116.941 406.083 117.055C404.92 117.619 403.874 117.773 402.946 117.516C402.137 117.328 401.088 117.281 399.799 117.374C399.723 117.091 399.525 116.916 399.204 116.851C398.883 116.785 398.603 116.683 398.364 116.545C397.654 115.218 396.986 114.235 396.36 113.594C395.853 113.022 395.38 112.39 394.942 111.699C394.368 110.69 393.955 109.714 393.702 108.771C393.424 107.733 392.917 106.782 392.18 105.918C391.575 105.17 391.271 104.696 391.268 104.494C391.264 104.293 391.212 104.004 391.111 103.626C390.782 102.4 390.351 101.075 389.818 99.6507C389.272 98.1794 389.539 96.8187 390.62 95.5687C391.038 95.0524 391.259 94.4624 391.283 93.7987C391.333 93.2294 391.588 92.5796 392.05 91.8493C392.188 91.6101 392.469 91.4336 392.894 91.3199C393.224 91.2314 393.543 91.1964 393.851 91.2149Z" fill="#37E2D5"></path> </svg>